<svg width="30" height="30" viewBox="0 0 30 30" fill="none" xmlns="http://www.w3.org/2000/svg">
<path d="M17.1631 4.3873L19.3631 8.7873C19.6631 9.3998 20.4631 9.9873 21.1381 10.0998L25.1256 10.7623C27.6756 11.1873 28.2756 13.0373 26.4381 14.8623L23.3381 17.9623C22.8131 18.4873 22.5256 19.4998 22.6881 20.2248L23.5756 24.0623C24.2756 27.0998 22.6631 28.2748 19.9756 26.6873L16.2381 24.4748C15.5631 24.0748 14.4506 24.0748 13.7631 24.4748L10.0256 26.6873C7.35062 28.2748 5.72562 27.0873 6.42562 24.0623L7.31312 20.2248C7.47562 19.4998 7.18812 18.4873 6.66312 17.9623L3.56312 14.8623C1.73812 13.0373 2.32562 11.1873 4.87562 10.7623L8.86312 10.0998C9.52562 9.9873 10.3256 9.3998 10.6256 8.7873L12.8256 4.3873C14.0256 1.9998 15.9756 1.9998 17.1631 4.3873Z" fill="#FCD240"/>
</svg>
